<svg xmlns="http://www.w3.org/2000/svg" xml:lang="en" height="287.59999999999997pt" width="657.1999999999999pt" viewBox="-40.6 -213.39999999999998 657.1999999999999 287.59999999999997"><circle cx="432.0" cy="-190.79999999999998" r="18.0" style="stroke:black;fill:none;stroke-width:2.0;" /><circle cx="558.0" cy="-30.599999999999987" r="18.0" style="stroke:black;fill:none;stroke-width:2.0;" /><path d="M 0.0,-0.0 L 90.0,-0.0 L 90.0,-100.8 L 0.0,-100.8 L 0.0,-0.0" style="stroke:black;fill:none;stroke-width:2.0;stroke-linecap:round;stroke-linejoin:round;" /><path d="M 90.0,-18.0 L 108.0,-18.0" style="stroke:black;fill:none;stroke-width:2.0;stroke-linecap:round;stroke-linejoin:round;" /><path d="M 90.0,-39.6 L 108.0,-39.6" style="stroke:black;fill:none;stroke-width:2.0;stroke-linecap:round;stroke-linejoin:round;" /><path d="M 90.0,-61.199999999999996 L 108.0,-61.199999999999996" style="stroke:black;fill:none;stroke-width:2.0;stroke-linecap:round;stroke-linejoin:round;" /><path d="M 90.0,-82.8 L 108.0,-82.8" style="stroke:black;fill:none;stroke-width:2.0;stroke-linecap:round;stroke-linejoin:round;" /><path d="M 216.0,-0.0 L 310.344,-0.0 L 310.344,-100.8 L 216.0,-100.8 L 216.0,-0.0" style="stroke:black;fill:none;stroke-width:2.0;stroke-linecap:round;stroke-linejoin:round;" /><path d="M 216.0,-18.0 L 198.0,-18.0" style="stroke:black;fill:none;stroke-width:2.0;stroke-linecap:round;stroke-linejoin:round;" /><path d="M 216.0,-39.6 L 198.0,-39.6" style="stroke:black;fill:none;stroke-width:2.0;stroke-linecap:round;stroke-linejoin:round;" /><path d="M 216.0,-61.199999999999996 L 198.0,-61.199999999999996" style="stroke:black;fill:none;stroke-width:2.0;stroke-linecap:round;stroke-linejoin:round;" /><path d="M 216.0,-82.8 L 198.0,-82.8" style="stroke:black;fill:none;stroke-width:2.0;stroke-linecap:round;stroke-linejoin:round;" /><path d="M 310.344,-28.799999999999997 L 328.344,-28.799999999999997" style="stroke:black;fill:none;stroke-width:2.0;stroke-linecap:round;stroke-linejoin:round;" /><path d="M 310.344,-50.4 L 328.344,-50.4" style="stroke:black;fill:none;stroke-width:2.0;stroke-linecap:round;stroke-linejoin:round;" /><path d="M 310.344,-72.0 L 328.344,-72.0" style="stroke:black;fill:none;stroke-width:2.0;stroke-linecap:round;stroke-linejoin:round;" /><path d="M 108.0,-39.6 L 153.0,-39.6 L 198.0,-39.6" style="stroke:black;fill:none;stroke-width:2.0;stroke-linecap:round;stroke-linejoin:round;" /><path d="M 108.0,-61.199999999999996 L 153.0,-61.199999999999996 L 198.0,-61.199999999999996" style="stroke:black;fill:none;stroke-width:2.0;stroke-linecap:round;stroke-linejoin:round;" /><path d="M 108.0,-18.0 L 153.0,-18.0 L 198.0,-18.0" style="stroke:black;fill:none;stroke-width:2.0;stroke-linecap:round;stroke-linejoin:round;" /><path d="M 108.0,-82.8 L 153.0,-82.8 L 198.0,-82.8" style="stroke:black;fill:none;stroke-width:2.0;stroke-linecap:round;stroke-linejoin:round;" /><path d="M 378.0,-190.79999999999998 L 406.08,-190.79999999999998 L 406.08,-190.79999999999998 M 457.91999999999996,-190.79999999999998 L 457.91999999999996,-190.79999999999998 L 486.0,-190.79999999999998" style="stroke:black;fill:none;stroke-width:2.0;stroke-linecap:round;stroke-linejoin:round;" /><path d="M 414.0,-182.88 L 406.08,-182.88 L 406.08,-198.71999999999997 L 414.0,-198.71999999999997" style="stroke:black;fill:none;stroke-width:2.0;stroke-linecap:round;stroke-linejoin:round;" /><path d="M 450.0,-182.88 L 457.91999999999996,-182.88 L 457.91999999999996,-198.71999999999997 L 450.0,-198.71999999999997" style="stroke:black;fill:none;stroke-width:2.0;stroke-linecap:round;stroke-linejoin:round;" /><path d="M 328.344,-28.799999999999997 L 328.344,-190.79999999999998 L 378.0,-190.79999999999998" style="stroke:black;fill:none;stroke-width:2.0;stroke-linecap:round;stroke-linejoin:round;" /><path d="M 378.0,25.200000000000006 L 468.0,25.200000000000006 L 468.0,-64.8 L 378.0,-64.8 L 378.0,25.200000000000006" style="stroke:black;fill:none;stroke-width:2.0;stroke-linecap:round;stroke-linejoin:round;" /><path d="M 378.0,-8.999999999999993 L 360.0,-8.999999999999993" style="stroke:black;fill:none;stroke-width:2.0;stroke-linecap:round;stroke-linejoin:round;" /><path d="M 378.0,-30.599999999999987 L 360.0,-30.599999999999987" style="stroke:black;fill:none;stroke-width:2.0;stroke-linecap:round;stroke-linejoin:round;" /><path d="M 468.0,-8.999999999999993 L 486.0,-8.999999999999993" style="stroke:black;fill:none;stroke-width:2.0;stroke-linecap:round;stroke-linejoin:round;" /><path d="M 468.0,-30.599999999999987 L 486.0,-30.599999999999987" style="stroke:black;fill:none;stroke-width:2.0;stroke-linecap:round;stroke-linejoin:round;" /><path d="M 328.344,-50.4 L 328.344,-8.999999999999993 L 360.0,-8.999999999999993" style="stroke:black;fill:none;stroke-width:2.0;stroke-linecap:round;stroke-linejoin:round;" /><path d="M 328.344,-72.0 L 328.344,-30.599999999999987 L 360.0,-30.599999999999987" style="stroke:black;fill:none;stroke-width:2.0;stroke-linecap:round;stroke-linejoin:round;" /><path d="M 504.0,-30.599999999999987 L 532.0799999999999,-30.599999999999987 L 532.0799999999999,-30.599999999999987 M 583.92,-30.599999999999987 L 583.92,-30.599999999999987 L 612.0,-30.599999999999987" style="stroke:black;fill:none;stroke-width:2.0;stroke-linecap:round;stroke-linejoin:round;" /><path d="M 540.0,-22.67999999999999 L 532.0799999999999,-22.67999999999999 L 532.0799999999999,-38.51999999999999 L 540.0,-38.51999999999999" style="stroke:black;fill:none;stroke-width:2.0;stroke-linecap:round;stroke-linejoin:round;" /><path d="M 576.0,-22.67999999999999 L 583.92,-22.67999999999999 L 583.92,-38.51999999999999 L 576.0,-38.51999999999999" style="stroke:black;fill:none;stroke-width:2.0;stroke-linecap:round;stroke-linejoin:round;" /><path d="M 486.0,-8.999999999999993 L 504.0,-30.599999999999987" style="stroke:black;fill:none;stroke-width:2.0;stroke-linecap:round;stroke-linejoin:round;" /><path d="M 486.0,-30.599999999999987 L 612.0,-30.599999999999987" style="stroke:black;fill:none;stroke-width:2.0;stroke-linecap:round;stroke-linejoin:round;" /><text x="84.60000000000001" y="-23.6" fill="black" font-size="14" font-family="sans" text-anchor="end"><tspan x="84.60000000000001" dy="14">3.3V</tspan></text><text x="84.60000000000001" y="-45.2" fill="black" font-size="14" font-family="sans" text-anchor="end"><tspan x="84.60000000000001" dy="14">SDA</tspan></text><text x="84.60000000000001" y="-66.8" fill="black" font-size="14" font-family="sans" text-anchor="end"><tspan x="84.60000000000001" dy="14">SCL</tspan></text><text x="84.60000000000001" y="-88.4" fill="black" font-size="14" font-family="sans" text-anchor="end"><tspan x="84.60000000000001" dy="14">GND</tspan></text><text x="3.6" y="45.6" fill="black" font-size="12" font-family="sans" text-anchor="middle"><tspan x="3.6" dy="12">Raspberry Pi 4</tspan></text><text x="221.4" y="-23.6" fill="black" font-size="14" font-family="sans" text-anchor="start"><tspan x="221.4" dy="14">VCC</tspan></text><text x="221.4" y="-45.2" fill="black" font-size="14" font-family="sans" text-anchor="start"><tspan x="221.4" dy="14">SDA</tspan></text><text x="221.4" y="-66.8" fill="black" font-size="14" font-family="sans" text-anchor="start"><tspan x="221.4" dy="14">SCL</tspan></text><text x="221.4" y="-88.4" fill="black" font-size="14" font-family="sans" text-anchor="start"><tspan x="221.4" dy="14">GND</tspan></text><text x="304.94399999999996" y="-34.4" fill="black" font-size="14" font-family="sans" text-anchor="end"><tspan x="304.94399999999996" dy="14">PWM0</tspan></text><text x="304.94399999999996" y="-56.0" fill="black" font-size="14" font-family="sans" text-anchor="end"><tspan x="304.94399999999996" dy="14">PWM1</tspan></text><text x="304.94399999999996" y="-77.60000000000001" fill="black" font-size="14" font-family="sans" text-anchor="end"><tspan x="304.94399999999996" dy="14">PWM2</tspan></text><text x="219.6" y="45.6" fill="black" font-size="12" font-family="sans" text-anchor="middle"><tspan x="219.6" dy="12">PCA9685</tspan></text><text x="432.0" y="-169.20000000000002" fill="black" font-size="10" font-family="sans" text-anchor="middle"><tspan x="432.0" dy="10">Steering</tspan><tspan x="432.0" dy="10">Servo</tspan></text><text x="383.40000000000003" y="-14.599999999999994" fill="black" font-size="14" font-family="sans" text-anchor="start"><tspan x="383.40000000000003" dy="14">IN1</tspan></text><text x="383.40000000000003" y="-36.19999999999999" fill="black" font-size="14" font-family="sans" text-anchor="start"><tspan x="383.40000000000003" dy="14">IN2</tspan></text><text x="462.59999999999997" y="-14.599999999999994" fill="black" font-size="14" font-family="sans" text-anchor="end"><tspan x="462.59999999999997" dy="14">OUT1</tspan></text><text x="462.59999999999997" y="-36.19999999999999" fill="black" font-size="14" font-family="sans" text-anchor="end"><tspan x="462.59999999999997" dy="14">OUT2</tspan></text><text x="381.59999999999997" y="59.99999999999999" fill="black" font-size="12" font-family="sans" text-anchor="middle"><tspan x="381.59999999999997" dy="12">L298N Driver</tspan></text><text x="558.0" y="-8.999999999999988" fill="black" font-size="10" font-family="sans" text-anchor="middle"><tspan x="558.0" dy="10">DC Motor</tspan></text></svg>